<?xml version="1.0" encoding="utf-8"?>
<!-- Generator: Adobe Illustrator 18.1.1, SVG Export Plug-In . SVG Version: 6.00 Build 0)  -->
<svg version="1.1" id="Layer_1" xmlns="http://www.w3.org/2000/svg" xmlns:xlink="http://www.w3.org/1999/xlink" x="0px" y="0px"
	 viewBox="0 0 143.2 143.2" enable-background="new 0 0 143.2 143.2" xml:space="preserve">
<circle fill="#FFFFFF" cx="71.6" cy="71.6" r="71.6"/>
<polyline fill="none" stroke="#F7941E" stroke-linecap="round" stroke-miterlimit="10" points="86.1,106.3 82.2,118.1 73.9,129 "/>
<polyline fill="none" stroke="#F7941E" stroke-linecap="round" stroke-miterlimit="10" points="82.2,132.4 82.5,118.5 90.9,129.1 
	"/>
<polyline fill="none" stroke="#F7941E" stroke-linecap="round" stroke-miterlimit="10" points="94.6,107.6 98.4,119 93.2,132.4 "/>
<polyline fill="none" stroke="#F7941E" stroke-linecap="round" stroke-miterlimit="10" points="102.1,132.5 98.4,119 109.3,127.1 
	"/>
<polygon fill="#ED1C24" points="88.3,22.2 23.5,79.4 95.9,112.4 119.7,34.8 91.9,6.1 93.9,17.8 82.8,18.9 "/>
<polygon fill="#F7941E" points="119.7,34.8 130.2,44.3 116,47 "/>
<polygon points="113.1,28.1 102.3,38.6 111.5,61.5 119.7,34.8 "/>
<polygon fill="#ED1C24" points="41.7,76.3 4.3,106.3 7.3,119.7 7.7,119.7 29,97.8 29.8,98.5 9.1,119.7 22.3,120 54.5,78.5 "/>
</svg>
