<?xml version="1.0" encoding="utf-8"?>
<!-- Generator: Adobe Illustrator 18.1.1, SVG Export Plug-In . SVG Version: 6.00 Build 0)  -->
<svg version="1.1" id="Layer_1" xmlns="http://www.w3.org/2000/svg" xmlns:xlink="http://www.w3.org/1999/xlink" x="0px" y="0px"
	 viewBox="0 0 114.3 85.8" enable-background="new 0 0 114.3 85.8" xml:space="preserve">
<g>
	<path fill="#F7941E" d="M114.3,26.2l-9.3-7l0.8,11c0-0.1,0-0.2,0-0.2L114.3,26.2z"/>
	<g>
		<path fill="#ED1C24" d="M105,19.2L86.1,5l-9.4-5l3.5,7.7l-5-0.9l4.1,6.8L27.5,34.4c6.2,3.5,26,14,42,14.6l0,1
			c-7.9-0.3-16.7-2.9-24.3-6L0,65.9v14.8l37.1-25.8l0.6,0.8l-37,25.8l16.2,4.3l29.5-29.2c0,0,28.5,4.1,42.7-4.4
			c13.1-7.9,16.4-20.3,16.8-22L105,19.2z"/>
	</g>
</g>
</svg>
