<?xml version="1.0" encoding="utf-8"?>
<!-- Generator: Adobe Illustrator 18.1.1, SVG Export Plug-In . SVG Version: 6.00 Build 0)  -->
<svg version="1.1" id="Layer_1" xmlns="http://www.w3.org/2000/svg" xmlns:xlink="http://www.w3.org/1999/xlink" x="0px" y="0px"
	 viewBox="0 0 612 792" enable-background="new 0 0 612 792" xml:space="preserve">
<path fill="#80D3F1" d="M123.9,508l-44,44.9c0.9,1.3,1.7,2.6,2.6,3.4l44.4-45.7L123.9,508z"/>
<path fill="#D2EDF6" d="M100.4,429.3l276.9-244.5l-23.5-14.1l47.4-4.7l-6.8-41c-25.2-7.3-52.1-11.5-79.5-11.5
	C159,113.5,32.5,240,32.5,396c0,41.5,9,81.2,25.2,116.7l81.6-65.4L100.4,429.3z"/>
<g>
	<path fill="#D2EDF6" d="M597,396c0-124.4-80.3-229.9-192.3-267.5l106.4,110.7L409.9,570.8l-213.7-97.4l-88.9,114.1
		c51.7,56,125.6,91,207.7,91c42.3,0,82.1-9.4,118.4-26.1L417.1,593l51.3,38.5c0.4,0.4,0.9,0.9,0.9,1.3
		C546.2,582.3,597,495.2,597,396z"/>
	<path fill="#D2EDF6" d="M437.2,650.7c9.8-4.7,19.2-10.3,28.6-15.8l-41.5-30.8L437.2,650.7z"/>
	<path fill="#F7941E" d="M417.1,593l16.2,59.4c1.3-0.4,2.6-1.3,3.8-1.7l-12.8-47l41.5,30.8c1.3-0.9,2.1-1.3,3.4-2.1
		c0-0.4-0.4-0.9-0.9-1.3L417.1,593z"/>
</g>
<polygon fill="#F7941E" points="511.6,238.7 556.4,279.3 495.8,290.9 "/>
<path fill="#F7941E" d="M315.8,642.8c-0.3,0-0.6-0.1-0.9-0.3c-0.7-0.5-0.8-1.4-0.3-2.1L350,594l16.6-50.2c0.3-0.8,1.1-1.2,1.9-1
	c0.8,0.3,1.2,1.1,1,1.9l-16.7,50.7L317,642.2C316.7,642.6,316.3,642.8,315.8,642.8z"/>
<path fill="#F7941E" d="M351.3,657.3C351.3,657.3,351.3,657.3,351.3,657.3c-0.9,0-1.5-0.7-1.5-1.5l1.4-63.6l38.5,48.6
	c0.5,0.6,0.4,1.6-0.2,2.1c-0.6,0.5-1.6,0.4-2.1-0.2l-33.3-42l-1.2,55.2C352.8,656.7,352.1,657.3,351.3,657.3z"/>
<path fill="#F7941E" d="M398.3,657.3c-0.2,0-0.4,0-0.5-0.1c-0.8-0.3-1.2-1.2-0.9-1.9l22-56.8l-16.1-48.2c-0.3-0.8,0.2-1.6,0.9-1.9
	s1.6,0.2,1.9,0.9l16.4,49.2l-22.4,57.8C399.5,657,398.9,657.3,398.3,657.3z"/>
<path fill="#ED1C24" d="M409.9,570.4l101.3-331.6L404.7,128.5c-3.4-1.3-6.8-2.1-10.3-3.4l6.8,41l-47.4,4.7l23.5,14.1L100.4,429.3
	l38.9,17.5l-81.6,65.8c6.4,14.1,13.7,27.8,22.2,40.2l44-44.9l3,3l-44.4,45.7c7.7,10.7,15.8,21.4,24.8,30.8l88.9-114.1L409.9,570.4z"
	/>
<polygon points="483.4,210.1 437.2,255 476.5,352.8 511.6,238.7 "/>
</svg>
